<svg width="40" height="40" viewBox="0 0 40 40" fill="none" xmlns="http://www.w3.org/2000/svg">
<path fill-rule="evenodd" clip-rule="evenodd" d="M21.1177 3.69557L35.2843 11.6122C36.1313 12.0357 36.6663 12.9014 36.6663 13.8483V16.2499C36.6663 17.4005 35.7337 18.3333 34.583 18.3333H33.333V31.6667H34.9997C35.9202 31.6667 36.6663 32.4128 36.6663 33.3333C36.6663 34.2538 35.9202 35 34.9997 35H4.99967C4.07921 35 3.33301 34.2538 3.33301 33.3333C3.33301 32.4128 4.07921 31.6667 4.99967 31.6667H6.66634V18.3333H5.41634C4.26574 18.3333 3.33301 17.4005 3.33301 16.2499V13.8483C3.33301 12.9803 3.78257 12.1806 4.50986 11.7271L18.8817 3.69557C19.5855 3.34367 20.4138 3.34367 21.1177 3.69557ZM28.333 18.3333H11.6663V31.6667H14.9997V21.6667H18.333V31.6667H21.6663V21.6667H24.9997V31.6667H28.333V18.3333ZM19.9997 10C19.0792 10 18.333 10.7462 18.333 11.6667C18.333 12.5872 19.0792 13.3334 19.9997 13.3334C20.9202 13.3334 21.6663 12.5872 21.6663 11.6667C21.6663 10.7462 20.9202 10 19.9997 10Z" fill="#042F46"/>
</svg>
