<svg width="20" height="20" viewBox="0 0 20 20" fill="none" xmlns="http://www.w3.org/2000/svg">
<path d="M2.33301 15.833V6.08301H17.6663V15.833C17.6663 16.6116 17.0283 17.2497 16.2497 17.2497H3.74967C2.97108 17.2497 2.33301 16.6116 2.33301 15.833Z" fill="white" stroke="#388DCC" stroke-width="0.5"/>
<path d="M17.9163 4.16667V6.66667H2.08301V4.16667C2.08301 3.25 2.83301 2.5 3.74967 2.5H16.2497C17.1663 2.5 17.9163 3.25 17.9163 4.16667Z" fill="#F44336"/>
<path d="M12.5 4.16699C12.5 4.49851 12.6317 4.81646 12.8661 5.05088C13.1005 5.2853 13.4185 5.41699 13.75 5.41699C14.0815 5.41699 14.3995 5.2853 14.6339 5.05088C14.8683 4.81646 15 4.49851 15 4.16699C15 3.83547 14.8683 3.51753 14.6339 3.28311C14.3995 3.04869 14.0815 2.91699 13.75 2.91699C13.4185 2.91699 13.1005 3.04869 12.8661 3.28311C12.6317 3.51753 12.5 3.83547 12.5 4.16699Z" fill="#DC1E38"/>
<path d="M5 4.16699C5 4.49851 5.1317 4.81646 5.36612 5.05088C5.60054 5.2853 5.91848 5.41699 6.25 5.41699C6.58152 5.41699 6.89946 5.2853 7.13388 5.05088C7.3683 4.81646 7.5 4.49851 7.5 4.16699C7.5 3.83547 7.3683 3.51753 7.13388 3.28311C6.89946 3.04869 6.58152 2.91699 6.25 2.91699C5.91848 2.91699 5.60054 3.04869 5.36612 3.28311C5.1317 3.51753 5 3.83547 5 4.16699Z" fill="#DC1E38"/>
<path d="M13.7503 1.25C13.292 1.25 12.917 1.625 12.917 2.08333V4.16667C12.917 4.625 13.292 5 13.7503 5C14.2087 5 14.5837 4.625 14.5837 4.16667V2.08333C14.5837 1.625 14.2087 1.25 13.7503 1.25ZM6.25033 1.25C5.79199 1.25 5.41699 1.625 5.41699 2.08333V4.16667C5.41699 4.625 5.79199 5 6.25033 5C6.70866 5 7.08366 4.625 7.08366 4.16667V2.08333C7.08366 1.625 6.70866 1.25 6.25033 1.25Z" fill="#388DCC"/>
<path d="M5.41699 8.33301H7.08366V9.99967H5.41699V8.33301ZM7.91699 8.33301H9.58366V9.99967H7.91699V8.33301ZM10.417 8.33301H12.0837V9.99967H10.417V8.33301ZM12.917 8.33301H14.5837V9.99967H12.917V8.33301ZM5.41699 10.833H7.08366V12.4997H5.41699V10.833ZM7.91699 10.833H9.58366V12.4997H7.91699V10.833ZM10.417 10.833H12.0837V12.4997H10.417V10.833ZM12.917 10.833H14.5837V12.4997H12.917V10.833ZM5.41699 13.333H7.08366V14.9997H5.41699V13.333ZM7.91699 13.333H9.58366V14.9997H7.91699V13.333ZM10.417 13.333H12.0837V14.9997H10.417V13.333ZM12.917 13.333H14.5837V14.9997H12.917V13.333Z" fill="#042F46"/>
</svg>
