<svg width="32" height="32" viewBox="0 0 32 32" fill="none" xmlns="http://www.w3.org/2000/svg">
<g clip-path="url(#clip0_748_1626)">
<path d="M30.8231 24.6202L21.8825 15.6783L30.179 7.38183C31.7485 5.81428 31.7485 3.27167 30.179 1.70276C28.6107 0.134525 26.0681 0.135204 24.5012 1.70276L16.2035 9.99918L7.50003 1.29507C5.93111 -0.273162 3.38851 -0.273162 1.82095 1.29507C0.253397 2.86399 0.253397 5.40523 1.82095 6.97415L10.5251 15.6783L1.17681 25.0258C-0.392106 26.5954 -0.392106 29.1367 1.17681 30.7056C2.74504 32.2731 5.28697 32.2731 6.85452 30.7056L16.2035 21.3573L25.1454 30.2993C26.7136 31.8675 29.2555 31.8675 30.8231 30.2993C32.3927 28.7297 32.392 26.1871 30.8231 24.6202Z" fill="#042F46"/>
</g>
<defs>
<clipPath id="clip0_748_1626">
<rect width="32" height="32" fill="white"/>
</clipPath>
</defs>
</svg>
