<svg width="20" height="20" viewBox="0 0 20 20" fill="none" xmlns="http://www.w3.org/2000/svg">
<path d="M18.1818 2.5H1.81818C0.814025 2.5 0 3.31403 0 4.31818V15.2273C0 16.2314 0.814025 17.0454 1.81818 17.0454H18.1818C19.186 17.0454 20 16.2314 20 15.2273V4.31818C20 3.31403 19.186 2.5 18.1818 2.5Z" fill="#388DCC"/>
<g style="mix-blend-mode:soft-light">
<g style="mix-blend-mode:soft-light">
<path d="M20 5.22754H0V8.86388H20V5.22754Z" fill="#042F46"/>
</g>
</g>
<g style="mix-blend-mode:soft-light">
<g style="mix-blend-mode:soft-light">
<path d="M16.818 12.5H14.0907C13.8397 12.5 13.6362 12.7035 13.6362 12.9546V13.8636C13.6362 14.1147 13.8397 14.3182 14.0907 14.3182H16.818C17.069 14.3182 17.2726 14.1147 17.2726 13.8636V12.9546C17.2726 12.7035 17.069 12.5 16.818 12.5Z" fill="white"/>
</g>
</g>
<g style="mix-blend-mode:soft-light">
<g style="mix-blend-mode:soft-light">
<path fill-rule="evenodd" clip-rule="evenodd" d="M5.00006 14.6116C4.91474 14.7084 4.82021 14.795 4.71646 14.8716C4.6127 14.9483 4.50204 15.0131 4.38449 15.0662C4.26693 15.1193 4.14511 15.1593 4.01902 15.1865C3.89293 15.2136 3.76539 15.2272 3.63642 15.2272C3.57687 15.2272 3.51747 15.2243 3.45821 15.2184C3.39895 15.2126 3.34012 15.2039 3.28171 15.1923C3.22331 15.1806 3.16561 15.1662 3.10862 15.1489C3.05164 15.1316 2.99564 15.1116 2.94062 15.0888C2.88561 15.066 2.83185 15.0406 2.77934 15.0125C2.72682 14.9844 2.6758 14.9539 2.62629 14.9208C2.57678 14.8877 2.52901 14.8523 2.48297 14.8145C2.43694 14.7767 2.39287 14.7368 2.35077 14.6946C2.30866 14.6526 2.26872 14.6085 2.23094 14.5624C2.19317 14.5164 2.15774 14.4686 2.12466 14.4191C2.09157 14.3696 2.06099 14.3186 2.03292 14.2661C2.00486 14.2136 1.97942 14.1598 1.95664 14.1048C1.93385 14.0498 1.91381 13.9938 1.89652 13.9368C1.87924 13.8798 1.86479 13.8221 1.85317 13.7637C1.84156 13.7053 1.83283 13.6465 1.82699 13.5872C1.82116 13.5279 1.81824 13.4686 1.81824 13.409C1.81824 13.3494 1.82116 13.2901 1.82699 13.2308C1.83283 13.1715 1.84156 13.1127 1.85317 13.0543C1.86479 12.9959 1.87924 12.9382 1.89652 12.8812C1.91381 12.8243 1.93385 12.7683 1.95664 12.7132C1.97942 12.6582 2.00486 12.6044 2.03292 12.5519C2.06099 12.4994 2.09157 12.4484 2.12466 12.3989C2.15774 12.3494 2.19317 12.3016 2.23094 12.2556C2.26872 12.2095 2.30866 12.1654 2.35077 12.1234C2.39287 12.0813 2.43694 12.0413 2.48297 12.0035C2.52901 11.9658 2.57678 11.9303 2.62629 11.8973C2.6758 11.8641 2.72682 11.8336 2.77934 11.8055C2.83185 11.7774 2.88561 11.752 2.94062 11.7293C2.99564 11.7064 3.05164 11.6864 3.10862 11.6691C3.16561 11.6518 3.22331 11.6374 3.28171 11.6258C3.34012 11.6141 3.39895 11.6054 3.45821 11.5996C3.51747 11.5938 3.57687 11.5908 3.63642 11.5908C3.76539 11.5908 3.89293 11.6044 4.01902 11.6315C4.14511 11.6587 4.26693 11.6988 4.38449 11.7518C4.50204 11.8049 4.6127 11.8698 4.71646 11.9464C4.82021 12.023 4.91474 12.1096 5.00006 12.2064C5.08536 12.1096 5.1799 12.023 5.28366 11.9464C5.38741 11.8698 5.49807 11.8049 5.61562 11.7518C5.73318 11.6988 5.855 11.6587 5.98109 11.6315C6.10718 11.6044 6.23471 11.5908 6.36369 11.5908C6.42325 11.5908 6.48263 11.5938 6.54187 11.5996C6.60119 11.6054 6.66 11.6141 6.71838 11.6258C6.77681 11.6374 6.8345 11.6518 6.8915 11.6691C6.94844 11.6864 7.00444 11.7064 7.0595 11.7293C7.1145 11.752 7.16825 11.7774 7.22075 11.8055C7.27331 11.8336 7.32431 11.8641 7.37381 11.8973C7.42331 11.9303 7.47113 11.9658 7.51713 12.0035C7.56319 12.0413 7.60725 12.0813 7.64931 12.1234C7.69144 12.1654 7.73138 12.2095 7.76919 12.2556C7.80694 12.3016 7.84238 12.3494 7.87544 12.3989C7.90856 12.4484 7.93913 12.4994 7.96719 12.5519C7.99525 12.6044 8.02069 12.6582 8.0435 12.7132C8.06625 12.7683 8.08631 12.8243 8.10356 12.8812C8.12087 12.9382 8.13531 12.9959 8.14694 13.0543C8.15856 13.1127 8.16731 13.1715 8.17312 13.2308C8.17894 13.2901 8.18187 13.3494 8.18187 13.409C8.18187 13.4686 8.17894 13.5279 8.17312 13.5872C8.16731 13.6465 8.15856 13.7053 8.14694 13.7637C8.13531 13.8221 8.12087 13.8798 8.10356 13.9368C8.08631 13.9938 8.06625 14.0498 8.0435 14.1048C8.02069 14.1598 7.99525 14.2136 7.96719 14.2661C7.93913 14.3186 7.90856 14.3696 7.87544 14.4191C7.84238 14.4686 7.80694 14.5164 7.76919 14.5624C7.73138 14.6085 7.69144 14.6526 7.64931 14.6946C7.60725 14.7368 7.56319 14.7767 7.51713 14.8145C7.47113 14.8523 7.42331 14.8877 7.37381 14.9208C7.32431 14.9539 7.27331 14.9844 7.22075 15.0125C7.16825 15.0406 7.1145 15.066 7.0595 15.0888C7.00444 15.1116 6.94844 15.1316 6.8915 15.1489C6.8345 15.1662 6.77681 15.1806 6.71838 15.1923C6.66 15.2039 6.60119 15.2126 6.54187 15.2184C6.48263 15.2243 6.42325 15.2272 6.36369 15.2272C6.23471 15.2272 6.10718 15.2136 5.98109 15.1865C5.855 15.1593 5.73318 15.1193 5.61562 15.0662C5.49807 15.0131 5.38741 14.9483 5.28366 14.8716C5.1799 14.795 5.08536 14.7084 5.00006 14.6116Z" fill="white"/>
</g>
</g>
</svg>
