<svg width="40" height="40" viewBox="0 0 40 40" fill="none" xmlns="http://www.w3.org/2000/svg">
<g clip-path="url(#clip0_910_18526)">
<path d="M36.6663 16.667V28.3337C36.6663 31.0952 34.4278 33.3337 31.6663 33.3337H8.33301C5.57159 33.3337 3.33301 31.0952 3.33301 28.3337V16.667H36.6663ZM29.9997 23.3337H24.9997C24.0792 23.3337 23.333 24.0798 23.333 25.0003C23.333 25.9208 24.0792 26.667 24.9997 26.667H29.9997C30.9202 26.667 31.6663 25.9208 31.6663 25.0003C31.6663 24.0798 30.9202 23.3337 29.9997 23.3337ZM31.6663 6.66699C34.4278 6.66699 36.6663 8.90558 36.6663 11.667V13.3337H3.33301V11.667C3.33301 8.90558 5.57159 6.66699 8.33301 6.66699H31.6663Z" fill="#042F46"/>
</g>
<defs>
<clipPath id="clip0_910_18526">
<rect width="40" height="40" fill="white"/>
</clipPath>
</defs>
</svg>
