<svg width="80" height="80" viewBox="0 0 80 80" fill="none" xmlns="http://www.w3.org/2000/svg">
<g clip-path="url(#clip0_554_216)">
<path d="M40 80C62.0914 80 80 62.0914 80 40C80 17.9086 62.0914 0 40 0C17.9086 0 0 17.9086 0 40C0 62.0914 17.9086 80 40 80Z" fill="#EBF6FC"/>
<g opacity="0.2">
<path d="M21.2499 62.5C15.7499 62.5 13.4999 58.625 16.2499 53.875L34.9999 21.25C37.7499 16.5 42.2499 16.5 44.9999 21.25L63.7499 53.875C66.4999 58.625 64.2499 62.5 58.7499 62.5H21.2499Z" fill="#231F20"/>
</g>
<path d="M21.2499 60C15.7499 60 13.4999 56.125 16.2499 51.375L34.9999 18.75C37.7499 14 42.2499 14 44.9999 18.75L63.7499 51.375C66.4999 56.125 64.2499 60 58.7499 60H21.2499Z" fill="#FACB0B"/>
<path d="M42.5 40C42.5 41.375 41.375 42.5 40 42.5C38.625 42.5 37.5 41.375 37.5 40V30C37.5 28.625 38.625 27.5 40 27.5C41.375 27.5 42.5 28.625 42.5 30V40Z" fill="#181B24"/>
<path d="M42.5 50C42.5 51.375 41.375 52.5 40 52.5C38.625 52.5 37.5 51.375 37.5 50C37.5 48.625 38.625 47.5 40 47.5C41.375 47.5 42.5 48.625 42.5 50Z" fill="#181B24"/>
</g>
<defs>
<clipPath id="clip0_554_216">
<rect width="80" height="80" fill="white"/>
</clipPath>
</defs>
</svg>
