<svg width="21" height="21" viewBox="0 0 21 21" fill="none" xmlns="http://www.w3.org/2000/svg">
<path d="M15.5 16.75C15.5 17.413 15.2366 18.0489 14.7678 18.5178C14.2989 18.9866 13.663 19.25 13 19.25H4.25C3.58696 19.25 2.95107 18.9866 2.48223 18.5178C2.01339 18.0489 1.75 17.413 1.75 16.75V8C1.75 7.33696 2.01339 6.70107 2.48223 6.23223C2.95107 5.76339 3.58696 5.5 4.25 5.5V6.75C3.91848 6.75 3.60054 6.8817 3.36612 7.11612C3.1317 7.35054 3 7.66848 3 8V16.75C3 17.0815 3.1317 17.3995 3.36612 17.6339C3.60054 17.8683 3.91848 18 4.25 18H13C13.3315 18 13.6495 17.8683 13.8839 17.6339C14.1183 17.3995 14.25 17.0815 14.25 16.75H15.5Z" fill="#388DCC"/>
<path d="M8 3C7.66848 3 7.35054 3.1317 7.11612 3.36612C6.8817 3.60054 6.75 3.91848 6.75 4.25V13C6.75 13.3315 6.8817 13.6495 7.11612 13.8839C7.35054 14.1183 7.66848 14.25 8 14.25H16.75C17.0815 14.25 17.3995 14.1183 17.6339 13.8839C17.8683 13.6495 18 13.3315 18 13V4.25C18 3.91848 17.8683 3.60054 17.6339 3.36612C17.3995 3.1317 17.0815 3 16.75 3H8ZM8 1.75H16.75C17.413 1.75 18.0489 2.01339 18.5178 2.48223C18.9866 2.95107 19.25 3.58696 19.25 4.25V13C19.25 13.663 18.9866 14.2989 18.5178 14.7678C18.0489 15.2366 17.413 15.5 16.75 15.5H8C7.33696 15.5 6.70107 15.2366 6.23223 14.7678C5.76339 14.2989 5.5 13.663 5.5 13V4.25C5.5 3.58696 5.76339 2.95107 6.23223 2.48223C6.70107 2.01339 7.33696 1.75 8 1.75Z" fill="#388DCC"/>
</svg>
