<svg width="34" height="34" viewBox="0 0 34 34" fill="none" xmlns="http://www.w3.org/2000/svg">
<path d="M31.9997 0.333008H21.9997C21.5576 0.333008 21.1337 0.508602 20.8212 0.821163C20.5086 1.13372 20.333 1.55765 20.333 1.99967V11.9997C20.333 12.4417 20.5086 12.8656 20.8212 13.1782C21.1337 13.4907 21.5576 13.6663 21.9997 13.6663H23.6663V16.9997H26.9997V13.6663H30.333V16.9997H33.6663V1.99967C33.6663 1.55765 33.4907 1.13372 33.1782 0.821163C32.8656 0.508602 32.4417 0.333008 31.9997 0.333008ZM26.9997 10.333H23.6663V3.66634H30.333V10.333H26.9997ZM1.99967 13.6663H11.9997C12.4417 13.6663 12.8656 13.4907 13.1782 13.1782C13.4907 12.8656 13.6663 12.4417 13.6663 11.9997V1.99967C13.6663 1.55765 13.4907 1.13372 13.1782 0.821163C12.8656 0.508602 12.4417 0.333008 11.9997 0.333008H1.99967C1.55765 0.333008 1.13372 0.508602 0.821163 0.821163C0.508602 1.13372 0.333008 1.55765 0.333008 1.99967V11.9997C0.333008 12.4417 0.508602 12.8656 0.821163 13.1782C1.13372 13.4907 1.55765 13.6663 1.99967 13.6663ZM3.66634 3.66634H10.333V10.333H3.66634V3.66634ZM5.33301 23.6663V26.9997H1.99967V23.6663H5.33301ZM1.99967 30.333H5.33301V33.6663H1.99967V30.333ZM8.66634 26.9997V30.333H5.33301V26.9997H8.66634ZM8.66634 23.6663H5.33301V20.333H8.66634V16.9997H11.9997V23.6663H8.66634ZM5.33301 16.9997V20.333H1.99967V16.9997H5.33301ZM20.333 21.9997V23.6663H18.6663V20.333H15.333V26.9997H20.333V31.9997C20.333 32.4417 20.5086 32.8656 20.8212 33.1782C21.1337 33.4907 21.5576 33.6663 21.9997 33.6663H31.9997C32.4417 33.6663 32.8656 33.4907 33.1782 33.1782C33.4907 32.8656 33.6663 32.4417 33.6663 31.9997V21.9997C33.6663 21.5576 33.4907 21.1337 33.1782 20.8212C32.8656 20.5086 32.4417 20.333 31.9997 20.333H23.6663V16.9997H20.333V21.9997ZM30.333 23.6663V30.333H23.6663V23.6663H30.333ZM11.9997 26.9997H15.333V30.333H16.9997V33.6663H8.66634V30.333H11.9997V26.9997ZM18.6663 6.99967H15.333V3.66634H18.6663V6.99967ZM15.333 10.333H18.6663V16.9997H15.333V10.333ZM5.33301 5.33301H8.66634V8.66634H5.33301V5.33301ZM25.333 5.33301H28.6663V8.66634H25.333V5.33301ZM28.6663 28.6663H25.333V25.333H28.6663V28.6663Z" fill="#042F46"/>
</svg>
