<svg width="320" height="320" viewBox="0 0 320 320" fill="none" xmlns="http://www.w3.org/2000/svg">
<g clip-path="url(#clip0_759_1169)">
<rect width="320" height="320" rx="20" fill="white"/>
<path d="M40 120H120V40H40V120ZM53.3333 53.3333H106.667V106.667H53.3333V53.3333ZM66.6667 66.6667H93.3333V93.3333H66.6667V66.6667ZM200 120H280V40H200V120ZM213.333 53.3333H266.667V106.667H213.333V53.3333ZM226.667 66.6667H253.333V93.3333H226.667V66.6667ZM40 280H120V200H40V280ZM53.3333 213.333H106.667V266.667H53.3333V213.333ZM66.6667 226.667H93.3333V253.333H66.6667V226.667ZM266.667 253.333H280V280H253.333V240H266.667V253.333ZM266.667 213.333H280V226.667H266.667V213.333ZM266.667 200V213.333H253.333V200H266.667ZM133.333 226.667H146.667V280H133.333V226.667ZM80 133.333V160H53.3333V146.667H40V133.333H80ZM133.333 93.3333H146.667V106.667H133.333V93.3333ZM173.333 53.3333V80H160V40H186.667V53.3333H173.333ZM133.333 53.3333H146.667V66.6667H133.333V53.3333ZM266.667 160H280V186.667H253.333V173.333H266.667V160ZM253.333 133.333V146.667H226.667V173.333H200V160H213.333V133.333H253.333ZM160 186.667H146.667V173.333H133.333V160H160V186.667ZM240 213.333H253.333V226.667H240V213.333ZM266.667 146.667V160H253.333V146.667H266.667ZM146.667 186.667V200H133.333V186.667H146.667ZM226.667 253.333H240V280H213.333V253.333H226.667ZM186.667 253.333H200V266.667H186.667V280H160V266.667H173.333V253.333H186.667ZM186.667 240V226.667H213.333V240H186.667ZM186.667 173.333H200V213.333H186.667V226.667H173.333V240H160V213.333H146.667V200H186.667V186.667H173.333V173.333H186.667ZM66.6667 173.333V186.667H53.3333V173.333H66.6667ZM226.667 226.667H213.333V213.333H226.667V226.667ZM240 200H213.333V186.667H240V200ZM106.667 133.333H120V146.667H106.667V160H120V186.667H106.667V173.333H93.3333V186.667H80V160H93.3333V133.333H106.667ZM146.667 133.333V106.667H186.667V146.667H160V133.333H173.333V120H160V133.333H146.667ZM146.667 80H160V93.3333H146.667V80ZM133.333 133.333H146.667V146.667H133.333V133.333ZM173.333 93.3333V80H186.667V93.3333H173.333Z" fill="url(#paint0_linear_759_1169)"/>
</g>
<defs>
<linearGradient id="paint0_linear_759_1169" x1="160" y1="40" x2="160" y2="280" gradientUnits="userSpaceOnUse">
<stop stop-color="#042E46"/>
<stop offset="1" stop-color="#0C9EE8"/>
</linearGradient>
<clipPath id="clip0_759_1169">
<rect width="320" height="320" rx="20" fill="white"/>
</clipPath>
</defs>
</svg>
