<svg width="320" height="320" viewBox="0 0 320 320" fill="none" xmlns="http://www.w3.org/2000/svg">
<g clip-path="url(#clip0_935_20939)">
<path d="M0 160.004C0 248.376 71.6288 320.003 159.997 320C248.371 320.003 320 248.376 320 160.004C320.006 71.6313 248.371 0 159.997 0C71.6288 0 0 71.6338 0 160.004Z" fill="#388DCC"/>
<path d="M320.001 160.003C320.002 138.103 315.592 117.236 307.629 98.2264C307.517 98.0764 307.424 97.9139 307.272 97.7889C307.172 97.7083 307.049 97.687 306.944 97.6164C306.729 97.3227 265.227 55.8658 265.122 55.7945C264.907 55.502 264.724 55.187 264.429 54.9464C262.537 53.4058 259.757 53.6777 258.211 55.5727L197.911 129.286C197.722 129.08 175.917 107.225 175.22 106.879C163.541 101.079 150.986 98.1364 137.904 98.1364C91.6118 98.1364 53.9512 135.799 53.9512 182.092C53.9512 205.499 63.5999 226.675 79.1031 241.916C79.4405 242.259 156.952 319.764 157.112 319.925C158.076 319.943 159.031 319.998 159.998 319.998C248.372 320.002 320.001 248.375 320.001 160.003Z" fill="#08699B"/>
<g filter="url(#filter0_d_935_20939)">
<path d="M264.428 54.9484C262.536 53.4077 259.757 53.6796 258.21 55.5746L131.181 210.859L92.4324 171.91C90.7106 170.18 87.9106 170.167 86.1843 171.893C84.4537 173.615 84.4449 176.411 86.1668 178.141L128.369 220.559C129.199 221.396 130.328 221.862 131.501 221.862C131.572 221.862 131.644 221.862 131.717 221.858C132.965 221.798 134.129 221.211 134.921 220.24L265.049 61.1671C266.595 59.2809 266.316 56.4927 264.428 54.9484Z" fill="#27AE60"/>
<path d="M265.06 54.1729L265.061 54.1743C267.377 56.0681 267.719 59.4863 265.823 61.8003L265.06 54.1729ZM265.06 54.1729C262.743 52.2864 259.334 52.6169 257.436 54.9414M265.06 54.1729L257.436 54.9414M131.766 222.857C133.296 222.783 134.725 222.063 135.696 220.873C135.696 220.873 135.696 220.873 135.696 220.872L265.823 61.8009L131.717 221.858M131.766 222.857L131.717 221.858M131.766 222.857C131.767 222.857 131.768 222.857 131.768 222.857L131.717 221.858M131.766 222.857C131.664 222.862 131.568 222.862 131.501 222.862C130.063 222.862 128.678 222.291 127.659 221.263M131.717 221.858C131.644 221.862 131.572 221.862 131.501 221.862C130.328 221.862 129.199 221.396 128.369 220.559M127.659 221.263L127.66 221.264L128.369 220.559M127.659 221.263L85.458 178.846M127.659 221.263L128.369 220.559M128.369 220.559L85.458 178.846M85.458 178.846L86.1668 178.141L85.4579 178.846C85.458 178.846 85.458 178.846 85.458 178.846ZM257.436 54.9414L257.435 54.9423L257.436 54.9414ZM85.4773 171.186L86.1843 171.893L85.479 171.184C85.4784 171.184 85.4779 171.185 85.4773 171.186ZM131.817 210.081L131.181 210.859L130.472 210.146L131.108 209.368L131.817 210.081Z" stroke="#25CF6D" stroke-width="2"/>
</g>
<path d="M214.452 160.069C212.072 160.613 210.585 162.982 211.131 165.364C212.387 170.844 213.023 176.471 213.023 182.094C213.023 223.515 179.324 257.212 137.903 257.212C96.4842 257.212 62.7867 223.515 62.7867 182.094C62.7867 140.672 96.4836 106.976 137.903 106.976C149.607 106.976 160.84 109.607 171.287 114.795C173.48 115.887 176.124 114.994 177.209 112.802C178.295 110.619 177.403 107.964 175.218 106.881C163.539 101.082 150.984 98.1387 137.902 98.1387C91.6099 98.1387 53.9492 135.801 53.9492 182.094C53.9492 228.387 91.6099 266.05 137.902 266.05C184.198 266.05 221.86 228.387 221.86 182.094C221.86 175.812 221.148 169.516 219.743 163.388C219.201 161.01 216.821 159.53 214.452 160.069Z" fill="#F4F6F9"/>
</g>
<defs>
<filter id="filter0_d_935_20939" x="78.8809" y="51.9512" width="193.168" height="179.911" filterUnits="userSpaceOnUse" color-interpolation-filters="sRGB">
<feFlood flood-opacity="0" result="BackgroundImageFix"/>
<feColorMatrix in="SourceAlpha" type="matrix" values="0 0 0 0 0 0 0 0 0 0 0 0 0 0 0 0 0 0 127 0" result="hardAlpha"/>
<feOffset dy="4"/>
<feGaussianBlur stdDeviation="2"/>
<feComposite in2="hardAlpha" operator="out"/>
<feColorMatrix type="matrix" values="0 0 0 0 1 0 0 0 0 1 0 0 0 0 1 0 0 0 0.8 0"/>
<feBlend mode="normal" in2="BackgroundImageFix" result="effect1_dropShadow_935_20939"/>
<feBlend mode="normal" in="SourceGraphic" in2="effect1_dropShadow_935_20939" result="shape"/>
</filter>
<clipPath id="clip0_935_20939">
<rect width="320" height="320" fill="white"/>
</clipPath>
</defs>
</svg>
