<svg width="174" height="40" viewBox="0 0 174 40" fill="none" xmlns="http://www.w3.org/2000/svg">
<path d="M22.9135 40L21.5534 36.7793C21.5534 36.7793 24.7946 35.3689 25.4551 34.4498C25.7119 34.1204 25.8272 33.7614 25.9593 33.3967C26.3128 32.4254 26.7073 31.3388 26.7073 31.3388L20.5505 15.4454L24.4876 14.156L28.927 26.3263L33.0799 14.7998H37.3035L29.4108 35.2257C29.4108 35.2257 28.7261 36.8556 27.0999 38.0557C26.3184 38.6324 25.8235 38.9804 24.8783 39.3916C23.7936 39.866 22.9135 40 22.9135 40ZM128.286 40L126.926 36.7793C126.926 36.7793 130.167 35.3689 130.827 34.4498C131.084 34.1204 131.2 33.7614 131.332 33.3967C131.685 32.4254 132.08 31.3388 132.08 31.3388L125.923 15.4454L129.86 14.156L134.299 26.3263L138.452 14.7998H142.676L134.783 35.2257C134.783 35.2257 134.098 36.8556 132.472 38.0557C131.691 38.6324 131.196 38.9804 130.251 39.3916C129.164 39.866 128.286 40 128.286 40ZM41.9271 32.1259H39.78V7.21221L43.7896 6.78241V15.1589C44.4334 14.8221 45.2967 14.53 46.1414 14.3923C47.1183 14.2323 48.2365 14.2751 49.3845 14.504C50.2646 14.6789 52.7113 15.3375 54.2668 17.6317C55.4613 19.3918 55.958 21.2822 55.958 23.4908C55.958 25.8556 55.4389 27.8092 54.0695 29.5266C52.2461 31.8152 49.7082 32.6245 47.3639 32.6245C45.306 32.6245 43.5012 31.6142 42.7849 31.0504L41.9271 32.1259ZM51.0535 26.7524C51.3121 26.3542 51.7344 24.9904 51.7344 23.5242C51.7344 22.0599 51.4684 21.031 51.0088 20.1807C50.5492 19.3341 49.8589 18.3927 48.6309 18.028C47.4848 17.6875 46.16 17.7507 45.3637 18.0931C44.3087 18.5471 43.7896 18.9527 43.7896 18.9527V28.1162C43.7896 28.1162 45.3935 29.1656 47.1536 29.1191C49.7622 29.0503 50.486 27.6306 51.0535 26.7524ZM74.6126 24.4657H62.5856C62.6842 25.437 62.9986 26.4175 63.4601 27.078C64.2024 28.1404 65.4956 29.1117 68.0688 29.121C69.7731 29.1266 70.776 28.853 73.3251 27.6157L74.5419 30.5499C72.7371 31.7984 71.2988 32.124 70.6997 32.2729C69.0977 32.6692 67.0362 32.6059 65.6054 32.3566C63.6033 32.1017 61.9288 31.1267 60.7771 29.9638C59.1081 28.3525 58.4345 26.1942 58.4345 23.4889C58.4345 20.9194 59.0709 18.8187 60.3491 17.1833C61.7688 15.3692 64.0108 14.2974 66.7031 14.2974C69.7508 14.2974 71.6337 15.2985 72.8431 17.0307C74.0581 18.7704 74.6126 20.6701 74.6126 23.3531C74.6126 23.5335 74.6238 23.7363 74.6126 23.9615M62.6581 21.8162H70.7481C70.5974 20.9175 70.3629 20.0207 69.8829 19.3286C69.1387 18.2587 68.147 17.7359 66.7924 17.7359C65.7188 17.7359 64.3625 18.0224 63.5028 19.403C63.0284 20.164 62.8033 20.9529 62.6581 21.8162ZM86.3996 14.8017L87.2592 18.0224C86.4052 18.041 85.8656 18.2364 85.4451 18.3703C84.2022 18.7648 82.6021 19.8067 81.7536 20.4691C81.5955 20.5938 81.4225 20.7445 81.1024 21.0292V32.1259H77.0928V14.8017H79.2399L80.5294 17.6652C81.6048 16.7721 83.1528 15.8306 83.4636 15.6613C84.3232 15.1924 85.3781 14.8017 86.3996 14.8017ZM98.6946 23.0982H94.4002V32.124H89.7338V7.23268H98.6927C101.037 7.23268 102.935 7.93227 104.39 9.32959C105.843 10.7269 106.571 12.9801 106.571 15.1664C106.571 17.3526 105.843 19.6058 104.39 21.0031C102.937 22.4004 101.037 23.0982 98.6946 23.0982ZM94.4337 19.0755H98.1196C99.2695 19.0755 100.181 18.7666 100.858 18.1452C101.534 17.5256 101.872 16.2362 101.872 15.1998C101.872 14.1412 101.539 12.8406 100.875 12.2191C100.211 11.5995 99.2918 11.2888 98.1196 11.2888H94.4337V19.0755ZM109.047 26.972C109.047 25.5523 109.518 23.8964 110.837 22.8916C112.48 21.5855 114.167 21.5036 115.141 21.4645L119.284 21.459C119.284 21.459 119.284 21.0813 119.197 20.4933C119.05 19.7528 118.929 19.4327 118.62 18.9601C118.075 18.1378 117.156 17.9219 116.292 17.881C115.345 17.881 114.484 18.0782 113.86 18.2178C112.921 18.4801 112.352 18.6271 111.267 19.1667L110.121 15.8734C111.077 15.2166 112.562 14.9021 112.984 14.7998C113.217 14.744 114.774 14.37 116.134 14.37C118.612 14.37 120.562 15.3245 121.735 16.5079C122.907 17.6912 123.511 19.1016 123.441 21.0552L123.43 29.2363C123.43 30.228 123.435 32.124 123.435 32.124H120.715L120.071 30.3341C120.071 30.3341 117.937 32.5817 115.204 32.4813C112.867 32.485 111.494 31.8319 110.509 30.8588C109.46 29.8689 109.047 28.3228 109.047 26.972ZM115.146 29.4056C116.376 29.4708 117.677 28.8251 118.715 27.999C119.401 27.4018 119.427 27.3292 119.427 27.3292V24.2517H115.345C113.228 24.4304 112.64 26.0547 112.703 27.2473C112.735 27.8446 113.118 28.4772 113.501 28.8493C113.885 29.2196 114.471 29.4056 115.146 29.4056ZM16.4404 26.5552C15.2812 27.5506 13.1025 28.1386 11.5489 28.1386C7.69179 28.1386 4.00778 24.5104 4.00778 20.0356C4.00778 15.5608 7.69179 11.9326 11.5489 11.9326C13.1025 11.9326 15.2794 12.5206 16.4404 13.516L18.822 9.77242C16.9967 8.20578 13.9956 7.2792 11.5507 7.2792C5.47952 7.2792 0 12.9894 0 20.0356C0 27.0799 5.47952 32.792 11.5507 32.792C13.9956 32.792 16.9967 31.8654 18.822 30.2987L16.4404 26.5552Z" fill="#042F46"/>
<path d="M153.27 24.1792C158.926 29.6922 168.088 29.6922 173.674 24.1792L163.507 14.1561L153.27 24.1792Z" fill="#2F8ED6"/>
<path d="M153.27 4.13477C147.614 9.64777 147.614 18.668 153.27 24.1792L163.507 14.156L153.27 4.13477Z" fill="#042F46"/>
<path d="M173.672 4.13476C168.088 -1.37825 158.925 -1.37825 153.268 4.13476L163.505 14.1579L173.672 4.13476Z" fill="#DD0A35"/>
</svg>
