<svg width="38" height="40" viewBox="0 0 38 40" fill="none" xmlns="http://www.w3.org/2000/svg">
<path d="M14.667 2H11.3336C10.9657 2 10.667 2.29797 10.667 2.66664C10.667 3.03531 10.9657 3.33328 11.3336 3.33328H14.667C15.035 3.33328 15.3336 3.03531 15.3336 2.66664C15.3336 2.29797 15.035 2 14.667 2Z" fill="#042F46"/>
<path d="M9.33336 2H8.66672C8.29875 2 8.00008 2.29797 8.00008 2.66664C8.00008 3.03531 8.29875 3.33328 8.66672 3.33328H9.33336C9.70133 3.33328 10 3.03531 10 2.66664C10 2.29797 9.70133 2 9.33336 2Z" fill="#042F46"/>
<path d="M34.0004 22.667H26.667V26.0004H34.0004V22.667Z" fill="#042F46"/>
<path d="M38 12V11.3334C38 9.86266 36.804 8.66672 35.3334 8.66672H23.3334V4V2.64133C23.3334 1.18469 22.1487 0 20.6927 0H3.30734C1.85133 0 0.666641 1.18469 0.666641 2.64133V4V6C0.298672 6 0 6.29797 0 6.66664V7.33328C0 7.70195 0.298672 7.99992 0.666641 7.99992V8.66656C0.298672 8.66656 0 8.96453 0 9.3332V10C0 10.3687 0.298672 10.6666 0.666641 10.6666V11.3333C0.298672 11.3333 0 11.6313 0 11.9999V12.6666C0 13.0352 0.298672 13.3332 0.666641 13.3332V34.6666V37.3586C0.666641 38.8152 1.85133 39.9999 3.30734 39.9999H20.6927C22.1487 39.9999 23.3334 38.8152 23.3334 37.3586V34.6666V30H35.3334C36.8041 30 38 28.804 38 27.3334V17.3334H10.6666V16H38V13.3334H10.6666V12H38ZM25.3334 22C25.3334 21.6313 25.632 21.3334 26 21.3334H34.6666C35.0346 21.3334 35.3333 21.6313 35.3333 22V26.6666C35.3333 27.0353 35.0346 27.3333 34.6666 27.3333H26C25.632 27.3333 25.3334 27.0353 25.3334 26.6666V22ZM2 2.64133C2 1.92 2.58664 1.33336 3.30734 1.33336H20.6927C21.4134 1.33336 22 1.92 22 2.64133V4H2V2.64133ZM10.2547 38.6666H3.30734C2.58664 38.6666 2 38.08 2 37.3587V34.6666H10.2547C9.69469 35.1559 9.33336 35.866 9.33336 36.6666C9.33336 37.4673 9.69469 38.1773 10.2547 38.6666ZM12 38C11.2647 38 10.6666 37.402 10.6666 36.6666C10.6666 35.9313 11.2646 35.3333 12 35.3333C12.7353 35.3333 13.3334 35.9313 13.3334 36.6666C13.3334 37.402 12.7353 38 12 38ZM22 37.3587C22 38.08 21.4134 38.6666 20.6927 38.6666H13.7453C14.3053 38.1773 14.6666 37.4673 14.6666 36.6666C14.6666 35.8659 14.3053 35.1559 13.7453 34.6666H22V37.3587ZM22.6207 23.3334H21.3334C20.9654 23.3334 20.6667 23.0354 20.6667 22.6667C20.6667 22.298 20.9654 22.0001 21.3334 22.0001H22.6207C22.9887 22.0001 23.2873 22.298 23.2873 22.6667C23.2873 23.0354 22.9887 23.3334 22.6207 23.3334ZM18.2813 19.3334H22.6206C22.9886 19.3334 23.2873 19.6313 23.2873 20C23.2873 20.3687 22.9886 20.6666 22.6206 20.6666H18.2813C17.9134 20.6666 17.6147 20.3687 17.6147 20C17.6147 19.6313 17.9134 19.3334 18.2813 19.3334ZM12.6666 19.3334H16C16.368 19.3334 16.6666 19.6313 16.6666 20C16.6666 20.3687 16.368 20.6666 16 20.6666H12.6666C12.2987 20.6666 12 20.3687 12 20C12 19.6313 12.2987 19.3334 12.6666 19.3334ZM12.6666 22H19.2413C19.61 22 19.908 22.298 19.908 22.6666C19.908 23.0353 19.61 23.3333 19.2413 23.3333H12.6666C12.2987 23.3333 12 23.0353 12 22.6666C12 22.298 12.2987 22 12.6666 22ZM9.33336 11.3334V12V13.3334V16V17.3334V27.3334C9.33336 28.8041 10.5294 30 12 30H22V33.3334H2V5.33336H22V8.66672H12C10.5293 8.66664 9.33336 9.86266 9.33336 11.3334Z" fill="#042F46"/>
</svg>
