<svg width="40" height="40" viewBox="0 0 40 40" fill="none" xmlns="http://www.w3.org/2000/svg">
<g clip-path="url(#clip0_910_18552)">
<path d="M35 0H5C2.23438 0 0 2.23438 0 5V25C0 27.7656 2.23438 30 5 30H15L11.6641 40L26.6641 30H35C37.7656 30 40 27.7656 40 25V5C40 2.23438 37.7656 0 35 0Z" fill="#042F46"/>
<g clip-path="url(#clip1_910_18552)">
<path d="M14.472 17.2207L12.25 16.0003L14.472 14.78C14.5887 14.715 14.6667 14.5923 14.6667 14.4513C14.6667 14.3823 14.648 14.3177 14.6153 14.262L14.6163 14.2637L14.312 13.7357C14.246 13.6227 14.1253 13.548 13.9873 13.548C13.9153 13.548 13.8483 13.5683 13.7913 13.6033L13.793 13.6023L11.6253 14.9167L11.6797 12.3823C11.6797 12.38 11.6797 12.3777 11.6797 12.375C11.6797 12.168 11.512 12 11.305 12H10.6963C10.4893 12 10.3213 12.168 10.3213 12.375V12.3833V12.383L10.3757 14.9173L8.20765 13.6033C8.15232 13.5693 8.08498 13.549 8.01332 13.549C7.87532 13.549 7.75465 13.6237 7.68965 13.7347L7.68865 13.7363L7.38432 14.2633C7.35265 14.317 7.33398 14.382 7.33398 14.451C7.33398 14.592 7.41165 14.7147 7.52665 14.7787L7.52865 14.7797L9.75065 16L7.52865 17.2203C7.41198 17.2853 7.33398 17.408 7.33398 17.549C7.33398 17.618 7.35265 17.6827 7.38532 17.7383L7.38432 17.7367L7.68865 18.264C7.75465 18.377 7.87532 18.4517 8.01332 18.4517C8.08532 18.4517 8.15232 18.4313 8.20932 18.3963L8.20765 18.3973L10.3753 17.083L10.321 19.6173V19.6253C10.321 19.8323 10.489 20.0003 10.696 20.0003H11.3047C11.5117 20.0003 11.6797 19.8323 11.6797 19.6253C11.6797 19.6223 11.6797 19.6197 11.6797 19.617L11.6253 17.083L13.793 18.3973C13.8483 18.4313 13.9157 18.4517 13.9873 18.4517C14.1253 18.4517 14.246 18.377 14.311 18.266L14.312 18.2643L14.6163 17.737C14.648 17.6833 14.6667 17.6183 14.6667 17.5493C14.6667 17.4083 14.589 17.2857 14.474 17.2217L14.472 17.2207Z" fill="white"/>
</g>
<path d="M26.8798 19L27.2558 17.5429H26.0224L25.6496 19H24.7662L25.139 17.5429H24V16.6827H25.3561L25.7067 15.2794H24.4735V14.4192H25.9286L26.2834 13H27.1666L26.8117 14.4192H28.0412L28.3998 13H29.2839L28.9254 14.4192H30V15.2794H28.7007L28.3474 16.6827H29.5347V17.5429H28.1312L27.7502 19H26.8798ZM26.2233 16.6961H27.4767L27.8365 15.2709H26.5836L26.2233 16.6961Z" fill="white"/>
</g>
<defs>
<clipPath id="clip0_910_18552">
<rect width="40" height="40" fill="white"/>
</clipPath>
<clipPath id="clip1_910_18552">
<rect width="8" height="8" fill="white" transform="translate(7 12)"/>
</clipPath>
</defs>
</svg>
